# xmcd
#
# Track frame offsets:
#	150
#	15849
#	35697
#	55751
#	69094
#	85741
#	98490
#	113168
#	125626
#	139623
#	154485
#	172434
#	189547
#	204634
#	219878
#	241985
#
# Disc length: 3498 seconds
#
# Revision: 0
# Processed by: cddbd v1.5.2PL0 Copyright (c) Steve Scherf et al.
# Submitted via: dBpowerAMP V4.0
#
DISCID=d70da810
DTITLE=Maria Carneci - Viata , viata , mandra floare !
DYEAR=2008
DGENRE=Folklore
TTITLE0=Viata , viata , mandra floare
TTITLE1=Iubesc lumea , imi place viata
TTITLE2=Pacat , neicuta , pacat
TTITLE3=Neica al meu , nume de floare
TTITLE4=Maica , o sa plec in lume
TTITLE5=Aoleu , mai barbatele
TTITLE6=De-ar fi trandafiru-n floare
TTITLE7=Doru-i greu , dragostea-i mare
TTITLE8=Daca n-ai noroc si soarta
TTITLE9=De cand ma stiu , joc si cant
TTITLE10=Departe mai sunt de casa
TTITLE11=Spune , vecina , cum faci (feat. NICO)
TTITLE12=Bine v-am gasit nuntasi
TTITLE13=De ce , omule , strangi banii ?
TTITLE14=Azi fac nunta la baiat
TTITLE15=Ia spune , tiganco , spune (feat. NICO)
EXTD=power by AdiTerra@2008
EXTT0=
EXTT1=
EXTT2=
EXTT3=
EXTT4=
EXTT5=
EXTT6=
EXTT7=
EXTT8=
EXTT9=
EXTT10=
EXTT11=
EXTT12=
EXTT13=
EXTT14=
EXTT15=
PLAYORDER=
